<svg width="136" height="121" viewBox="0 0 136 121" fill="none" xmlns="http://www.w3.org/2000/svg">
<path d="M60.6875 63.625C60.6875 64.0417 60.6875 64.5417 60.6875 65.125C60.7708 65.625 60.7292 66.0833 60.5625 66.5C60.8125 67.3333 60.8125 68.125 60.5625 68.875C60.3958 69.5417 60.2292 70.3333 60.0625 71.25C60.3958 71.8333 60.4375 72.375 60.1875 72.875C59.9375 73.375 59.6042 73.7917 59.1875 74.125C59.1875 74.625 59.0625 75 58.8125 75.25C58.6458 75.5 58.4792 75.7917 58.3125 76.125C58.2292 77.2083 58.0208 77.9583 57.6875 78.375C57.3542 78.7083 57.0208 79.0833 56.6875 79.5C56.6042 80.1667 56.5208 80.7917 56.4375 81.375C56.3542 81.9583 56.1458 82.4583 55.8125 82.875C55.7292 83.2917 55.6875 83.6667 55.6875 84C55.7708 84.3333 55.6875 84.5833 55.4375 84.75C55.1875 84.8333 54.9375 84.9167 54.6875 85C54.5208 85 54.2708 84.9583 53.9375 84.875C53.5208 85.0417 53.1875 85.2917 52.9375 85.625C52.6875 85.875 52.3542 86.125 51.9375 86.375C52.0208 87.2917 51.9375 87.7917 51.6875 87.875C51.5208 87.9583 51.3125 88.0833 51.0625 88.25C50.8958 88.5833 50.6875 88.875 50.4375 89.125C50.1875 89.375 50.0625 89.75 50.0625 90.25C49.8125 90.4167 49.5625 90.625 49.3125 90.875C49.1458 91.125 48.9375 91.3333 48.6875 91.5C48.4375 92.1667 48.0625 92.6667 47.5625 93C46.6458 93 46.1458 93.0833 46.0625 93.25C45.9792 93.3333 45.8542 93.4583 45.6875 93.625C45.2708 93.7917 44.8125 93.9583 44.3125 94.125C43.8125 94.2917 43.2708 94.4167 42.6875 94.5C42.0208 94.5 41.5208 94.625 41.1875 94.875C40.8542 95.2083 40.3542 95.375 39.6875 95.375C39.2708 94.875 38.9792 94.6667 38.8125 94.75C38.7292 94.9167 38.5625 95.0833 38.3125 95.25C37.6458 95.25 37.1458 95.4583 36.8125 95.875C36.5625 96.2917 36.1458 96.5833 35.5625 96.75C35.1458 96.75 34.8542 96.625 34.6875 96.375C34.6042 96.2083 34.4792 96.0417 34.3125 95.875C33.3958 96.375 32.9375 96.8333 32.9375 97.25C33.0208 97.6667 32.8542 97.9583 32.4375 98.125C31.8542 98.0417 31.3958 97.8333 31.0625 97.5C30.7292 97.25 30.3542 97.0417 29.9375 96.875C29.4375 96.9583 28.9792 97.0833 28.5625 97.25C28.2292 97.5 27.7292 97.5833 27.0625 97.5C25.8958 97.0833 25.1875 97 24.9375 97.25C24.7708 97.5 24.5208 97.5833 24.1875 97.5C23.7708 97.5 23.4792 97.3333 23.3125 97C23.1458 96.75 22.8542 96.5 22.4375 96.25C21.3542 96.3333 20.6875 96.0417 20.4375 95.375C20.1042 95.375 19.8125 95.375 19.5625 95.375C19.3958 95.4583 19.2292 95.5 19.0625 95.5C18.0625 95.0833 17.1875 94.7917 16.4375 94.625C15.6875 94.5417 14.9792 94.375 14.3125 94.125C13.8958 93.7083 13.5625 93.1667 13.3125 92.5C13.1458 91.8333 12.9792 91.1667 12.8125 90.5C12.3958 89.75 12.0625 89.5 11.8125 89.75C11.5625 89.9167 11.2292 90 10.8125 90C10.3958 89.9167 10.0208 89.5417 9.6875 88.875C8.85417 88.125 8.27084 87.3333 7.9375 86.5C7.60417 85.6667 7.0625 84.9167 6.3125 84.25C5.8125 83.25 5.14584 82.375 4.3125 81.625C3.5625 80.7917 2.77084 79.9583 1.9375 79.125C1.60417 78.4583 1.47917 77.7083 1.5625 76.875C1.5625 75.9583 1.22917 75.2917 0.562502 74.875C0.229169 74.375 0.520835 73.9583 1.4375 73.625C2.27084 73.2083 2.85417 72.6667 3.1875 72C4.10417 71.4167 4.8125 71.1667 5.3125 71.25C5.89584 71.3333 6.4375 71.2083 6.9375 70.875C7.1875 69.9583 7.4375 69.5 7.6875 69.5C8.02084 69.4167 8.3125 69.25 8.5625 69C9.14584 67.9167 9.52084 67.25 9.6875 67C9.9375 66.6667 10.1458 66.375 10.3125 66.125C10.8125 65.4583 11.3958 64.875 12.0625 64.375C12.8125 63.4583 13.3958 62.75 13.8125 62.25C14.2292 61.75 14.6458 61.25 15.0625 60.75C15.8125 60.25 16.4792 59.9583 17.0625 59.875C17.4792 60.2917 17.8125 60.5 18.0625 60.5C18.3958 60.5 18.7708 60.7083 19.1875 61.125C18.8542 62.4583 18.1458 63.25 17.0625 63.5C17.0625 63.8333 16.9792 64.1667 16.8125 64.5C16.7292 64.8333 16.7708 65.1667 16.9375 65.5C17.1042 65.75 17.2292 66.0417 17.3125 66.375C17.3958 66.625 17.5208 66.875 17.6875 67.125C17.6042 67.375 17.5208 67.625 17.4375 67.875C17.3542 68.125 17.1042 68.3333 16.6875 68.5C16.7708 68.9167 16.6875 69.25 16.4375 69.5C16.2708 69.75 16.2292 70.0833 16.3125 70.5C16.4792 70.9167 16.6458 71.2917 16.8125 71.625C17.0625 71.9583 17.2708 72.3333 17.4375 72.75C17.7708 73.9167 17.7708 74.75 17.4375 75.25C17.1875 75.6667 16.9792 76.0417 16.8125 76.375C16.9792 76.7083 17.1875 77 17.4375 77.25C17.6875 77.4167 17.8958 77.625 18.0625 77.875C18.3125 78.2083 18.7708 78.625 19.4375 79.125C20.8542 79.0417 21.8125 79.3333 22.3125 80C22.8125 80.6667 23.1458 81.5833 23.3125 82.75C23.4792 82.8333 23.6875 82.8333 23.9375 82.75C24.1875 82.5833 24.5208 82.5 24.9375 82.5C25.7708 82.4167 26.5625 82.5 27.3125 82.75C28.6458 82.5 29.3958 82.5 29.5625 82.75C29.8125 82.9167 30.1458 83.0417 30.5625 83.125C31.0625 82.9583 31.3958 82.7083 31.5625 82.375C31.8125 82.0417 32.1458 81.7917 32.5625 81.625C32.9792 81.625 33.2708 81.6667 33.4375 81.75C33.6042 81.8333 33.8958 81.9167 34.3125 82C34.7292 82.0833 34.9375 82.2083 34.9375 82.375C34.9375 82.5417 35.1458 82.625 35.5625 82.625C35.9792 82.5417 36.3125 82.4167 36.5625 82.25C36.8958 82.0833 37.2708 81.9583 37.6875 81.875C38.1042 81.7083 38.4375 81.5 38.6875 81.25C38.9375 81 39.3125 80.875 39.8125 80.875C40.0625 79.7917 40.2292 79 40.3125 78.5C40.3958 78 40.6042 77.6667 40.9375 77.5C41.6042 76.8333 42.0208 76.2917 42.1875 75.875C42.3542 75.375 42.5208 74.9167 42.6875 74.5C43.6042 73.75 44.1042 73.0417 44.1875 72.375C44.3542 71.625 44.4375 70.9167 44.4375 70.25C44.7708 69.4167 45.0208 68.5833 45.1875 67.75C45.4375 66.9167 45.6458 66.0417 45.8125 65.125C45.7292 64.2917 45.7708 63.625 45.9375 63.125C45.4375 62.625 45.2708 61.9167 45.4375 61C44.7708 60.5 44.4375 60.0417 44.4375 59.625C44.4375 59.2083 44.3958 58.875 44.3125 58.625C43.8958 58.2083 43.4792 57.7917 43.0625 57.375C42.7292 56.9583 42.4792 56.4583 42.3125 55.875C41.4792 55.625 40.8542 55.125 40.4375 54.375C40.1042 54.625 39.6875 54.75 39.1875 54.75C38.7708 54.6667 38.4375 54.4583 38.1875 54.125C37.5208 53.9583 36.9792 53.7917 36.5625 53.625C36.1458 53.375 35.5208 53.3333 34.6875 53.5C34.2708 53.1667 34.0208 52.875 33.9375 52.625C33.9375 52.375 33.8958 52.0417 33.8125 51.625C33.4792 51.4583 33.0208 51.4167 32.4375 51.5C31.9375 51.5833 31.3958 51.5417 30.8125 51.375C30.4792 51.2083 30.1458 51.0833 29.8125 51C29.5625 50.8333 29.2292 50.75 28.8125 50.75C28.3958 50.3333 27.8542 50.0833 27.1875 50C26.6042 49.8333 26.1458 49.5417 25.8125 49.125C24.8125 48.375 23.9792 47.9167 23.3125 47.75C22.6458 47.5833 21.9792 47.4167 21.3125 47.25C20.8125 46.9167 20.3958 46.6667 20.0625 46.5C18.9792 46.8333 18.3125 46.9583 18.0625 46.875C17.8958 46.7917 17.6458 46.7083 17.3125 46.625C17.0625 46.4583 16.8542 46.3333 16.6875 46.25C16.5208 46.0833 16.3125 45.9583 16.0625 45.875C15.6458 45.2917 15.1042 44.7917 14.4375 44.375C13.8542 43.875 13.3542 43.2917 12.9375 42.625C12.6875 42.4583 12.4375 42.2917 12.1875 42.125C12.0208 41.875 11.8542 41.6667 11.6875 41.5C10.7708 41.25 9.97917 40.9167 9.3125 40.5C9.0625 39.25 8.85417 38.3333 8.6875 37.75C8.52084 37.1667 8.47917 36.5 8.5625 35.75C8.3125 35.5 8.02084 35.2917 7.6875 35.125C7.35417 34.9583 7.10417 34.6667 6.9375 34.25C7.02084 33.5 6.85417 32.9583 6.4375 32.625C6.10417 32.2083 5.85417 31.75 5.6875 31.25C5.85417 31 5.97917 30.75 6.0625 30.5C6.14584 30.1667 6.22917 29.875 6.3125 29.625C6.0625 28.9583 5.89584 28.25 5.8125 27.5C5.72917 26.75 5.8125 25.9583 6.0625 25.125C6.0625 24.2917 6.0625 23.7917 6.0625 23.625C6.0625 23.4583 6.14584 23.2917 6.3125 23.125C6.3125 22.7917 6.27084 22.5 6.1875 22.25C6.1875 21.9167 6.1875 21.625 6.1875 21.375C6.1875 20.9583 6.22917 20.5417 6.3125 20.125C6.39584 19.7083 6.52084 19.2917 6.6875 18.875C7.52084 17.875 8.02084 17 8.1875 16.25C8.4375 15.5 8.8125 14.9167 9.3125 14.5C9.72917 13.4167 10.2292 12.5 10.8125 11.75C11.4792 10.9167 12.1458 10.125 12.8125 9.375C13.5625 9.04167 14.0208 8.66667 14.1875 8.25C14.4375 7.83333 14.8125 7.54167 15.3125 7.375C16.2292 7.29167 16.7292 7.08333 16.8125 6.75C16.9792 6.33333 17.2708 6 17.6875 5.75C18.3542 5.91667 18.8958 5.875 19.3125 5.625C19.7292 5.375 20.2708 5.20833 20.9375 5.125C21.7708 4.625 22.5208 4 23.1875 3.25C23.6042 3.25 23.9375 3.33333 24.1875 3.5C24.5208 3.58333 24.8125 3.66667 25.0625 3.75C25.7292 3.25 26.1042 3 26.1875 3C26.3542 2.91667 26.4792 2.83333 26.5625 2.75C27.1458 2.33333 27.6458 2.08333 28.0625 2C28.5625 1.91667 28.9375 1.875 29.1875 1.875C29.9375 1.95833 30.3958 1.91667 30.5625 1.75C30.7292 1.58333 30.9792 1.5 31.3125 1.5C31.6458 1.58333 31.8542 1.66667 31.9375 1.75C32.1042 1.75 32.3958 1.66667 32.8125 1.5C33.7292 1.66667 34.3958 1.83333 34.8125 2C35.2292 2.08333 35.7292 2.08333 36.3125 2C36.5625 2.25 36.9375 2.54167 37.4375 2.875C37.7708 2.70833 38.0625 2.54167 38.3125 2.375C38.6458 2.125 38.9792 1.875 39.3125 1.625C39.6458 1.45833 39.9792 1.25 40.3125 1C40.6458 0.75 41.0208 0.833333 41.4375 1.25C41.6042 1.58333 41.6042 1.91667 41.4375 2.25C41.2708 2.5 41.2292 2.83333 41.3125 3.25C41.9792 3.75 42.5625 4.125 43.0625 4.375C43.5625 4.54167 44.0208 4.83333 44.4375 5.25C45.1875 5.58333 45.6042 5.875 45.6875 6.125C45.8542 6.375 46.0208 6.58333 46.1875 6.75C46.6042 6.66667 46.9375 6.58333 47.1875 6.5C47.5208 6.41667 47.8958 6.33333 48.3125 6.25C49.3125 6.33333 49.7292 7.04167 49.5625 8.375C49.9792 8.625 50.3542 8.875 50.6875 9.125C51.0208 9.29167 51.3542 9.54167 51.6875 9.875C53.1875 10.0417 54.1458 10.5 54.5625 11.25C54.3958 12.0833 54.3125 12.5417 54.3125 12.625C55.2292 12.9583 55.7708 13.2083 55.9375 13.375C56.1042 13.4583 56.2708 13.5833 56.4375 13.75C56.4375 14.3333 56.3542 14.7083 56.1875 14.875C56.1042 14.9583 56.0208 15.125 55.9375 15.375L57.1875 16.375C57.6042 16.625 57.8542 16.875 57.9375 17.125C58.1042 17.2917 58.3542 17.375 58.6875 17.375C59.1042 18.125 59.2708 18.5833 59.1875 18.75C59.1875 18.8333 59.2708 18.9583 59.4375 19.125C58.1875 19.7083 57.1458 20.4583 56.3125 21.375C55.8958 21.9583 55.6458 22.375 55.5625 22.625C55.5625 22.7917 55.4792 22.9583 55.3125 23.125C54.8958 23.625 54.6875 23.9583 54.6875 24.125C54.6875 24.2917 54.7292 24.4583 54.8125 24.625C54.5625 25.0417 54.3125 25.375 54.0625 25.625C53.8125 25.875 53.6042 26.1667 53.4375 26.5C53.2708 27.1667 53.0625 27.6667 52.8125 28C52.3958 28.1667 52.0208 28.375 51.6875 28.625C51.3542 28.875 50.9792 29.0417 50.5625 29.125C50.5625 29.5417 50.5625 29.9167 50.5625 30.25C50.6458 30.5 50.5625 30.8333 50.3125 31.25C49.6458 31.6667 49.1458 32.375 48.8125 33.375C48.0625 33.875 47.6458 34.25 47.5625 34.5C47.5625 34.75 47.4792 35.0417 47.3125 35.375C46.4792 35.9583 45.8542 36.25 45.4375 36.25C45.0208 36.1667 44.6875 35.9583 44.4375 35.625C44.4375 34.7083 44.4375 34.0417 44.4375 33.625C45.0208 32.9583 45.3958 32.375 45.5625 31.875C45.2292 31.2083 45.1875 30.6667 45.4375 30.25C45.4375 29.5 45.5208 29.125 45.6875 29.125C45.8542 29.0417 45.9375 28.9583 45.9375 28.875C45.5208 27.9583 45.2708 27.4583 45.1875 27.375C45.1042 27.2917 44.9792 27.2083 44.8125 27.125C44.5625 26.4583 44.3542 26.0833 44.1875 26C44.1042 25.9167 44.0625 25.75 44.0625 25.5C43.8958 24.6667 43.7292 24.1667 43.5625 24C43.4792 23.75 43.4375 23.5 43.4375 23.25C43.6042 22.5833 43.6875 22.1667 43.6875 22C43.6875 21.75 43.6042 21.5417 43.4375 21.375C43.1875 21.2083 42.9375 21.1667 42.6875 21.25C42.5208 21.3333 42.3125 21.2917 42.0625 21.125C41.7292 20.7917 41.5625 20.5 41.5625 20.25C41.6458 20 41.6042 19.75 41.4375 19.5C41.8542 19.0833 42.0625 18.6667 42.0625 18.25C41.7292 18.0833 41.4375 18.0417 41.1875 18.125C41.0208 18.125 40.8542 18.0417 40.6875 17.875C39.9375 17.0417 39.5208 16.4167 39.4375 16C39.1875 16 38.9792 16.0833 38.8125 16.25C38.6458 16.3333 38.3958 16.3333 38.0625 16.25C37.2292 15.6667 36.6458 15.4167 36.3125 15.5C36.0625 15.5 35.7292 15.5 35.3125 15.5C34.2292 15.25 33.3958 15 32.8125 14.75C32.2292 14.5 31.9792 14 32.0625 13.25C31.8958 13.3333 31.7292 13.5417 31.5625 13.875C31.3958 14.125 31.2292 14.3333 31.0625 14.5C30.4792 14.5833 29.8958 14.625 29.3125 14.625C28.8125 14.625 28.2292 14.6667 27.5625 14.75C27.2292 14.9167 26.9375 15.125 26.6875 15.375C26.4375 15.5417 26.1458 15.7083 25.8125 15.875C25.4792 16.2083 25.1875 16.5833 24.9375 17C24.7708 17.3333 24.5208 17.625 24.1875 17.875C23.5208 18.0417 23.0208 18.2083 22.6875 18.375C22.6875 18.7083 22.6875 19.0417 22.6875 19.375C22.7708 19.625 22.6875 19.8333 22.4375 20C21.3542 20.4167 20.8542 21.0417 20.9375 21.875C21.1042 22.7083 21.1042 23.4583 20.9375 24.125C20.6042 24.625 20.4792 24.9583 20.5625 25.125C20.6458 25.2083 20.6458 25.4167 20.5625 25.75C20.0625 26.3333 19.8125 26.8333 19.8125 27.25C19.8958 27.8333 20.1875 28.2917 20.6875 28.625C21.0208 28.7083 21.4375 28.9167 21.9375 29.25C21.8542 29.6667 21.8542 30.125 21.9375 30.625C22.0208 31.0417 22.1042 31.5 22.1875 32C22.7708 32.3333 23.1458 32.9583 23.3125 33.875C23.9792 33.9583 24.3958 34.25 24.5625 34.75C24.7292 35.1667 24.9792 35.5417 25.3125 35.875C26.4792 35.9583 27.2708 36.125 27.6875 36.375C28.1042 36.625 28.5625 36.875 29.0625 37.125C29.4792 37.125 29.7708 37.0833 29.9375 37C30.1875 36.8333 30.4792 36.75 30.8125 36.75C31.2292 37.1667 31.6875 37.5 32.1875 37.75C32.6875 37.9167 33.1458 38.2083 33.5625 38.625C34.3125 38.7917 35.0208 38.9583 35.6875 39.125C36.4375 39.2917 37.1042 39.5417 37.6875 39.875C37.9375 39.875 38.1458 39.875 38.3125 39.875C38.5625 39.7917 38.8125 39.7917 39.0625 39.875C39.4792 39.9583 39.8125 40.1667 40.0625 40.5C40.3125 40.75 40.5625 40.9583 40.8125 41.125C41.7292 41.0417 42.3125 41.2083 42.5625 41.625C42.8958 41.9583 43.2708 42.2917 43.6875 42.625C44.0208 42.7083 44.5625 42.75 45.3125 42.75C46.2292 43.3333 46.8542 43.625 47.1875 43.625C47.5208 43.5417 47.8125 43.5417 48.0625 43.625C48.3125 43.7917 48.5208 43.9583 48.6875 44.125C48.8542 44.2083 49.0208 44.3333 49.1875 44.5C50.1042 44.8333 50.6042 45.125 50.6875 45.375C50.7708 45.5417 50.8958 45.7083 51.0625 45.875C51.7292 45.875 52.3125 46.125 52.8125 46.625C52.8958 47.0417 53.0208 47.375 53.1875 47.625C53.4375 47.875 53.6458 48.1667 53.8125 48.5C54.2292 48.5 54.5208 48.625 54.6875 48.875C54.9375 49.125 55.1458 49.3333 55.3125 49.5C55.3958 49.8333 55.4792 50.125 55.5625 50.375C55.6458 50.625 55.6875 50.9583 55.6875 51.375C55.8542 51.7917 56.0625 52.1667 56.3125 52.5C56.6458 52.75 56.8958 53.125 57.0625 53.625C57.3958 54.0417 57.7292 54.375 58.0625 54.625C58.3958 54.875 58.6042 55.2917 58.6875 55.875C59.1042 57.0417 59.4375 57.7917 59.6875 58.125C60.0208 58.375 60.1042 58.9167 59.9375 59.75C60.0208 60.5833 60.0208 61.2083 59.9375 61.625C59.9375 62.0417 59.8542 62.4583 59.6875 62.875L60.6875 63.625Z" fill="black"/>
<path d="M133.562 1.5C133.896 2.41667 134.396 2.91667 135.062 3C135.062 3.41667 134.896 3.66667 134.562 3.75C134.312 3.83333 133.979 3.91667 133.562 4C133.229 4.75 132.979 5.16667 132.812 5.25C132.729 5.33333 132.521 5.45833 132.188 5.625C132.021 5.79167 131.896 6 131.812 6.25C131.729 6.5 131.521 6.66667 131.188 6.75C130.521 6.5 130.062 6.45833 129.812 6.625C129.562 6.79167 129.479 7.08333 129.562 7.5C129.146 7.83333 128.771 8.20833 128.438 8.625C128.104 9.04167 127.604 9.33333 126.938 9.5C126.771 10.5 126.562 11 126.312 11C126.146 11 125.979 11.0417 125.812 11.125C125.479 11.4583 125.396 12.0417 125.562 12.875C125.896 14.0417 125.896 14.75 125.562 15C125.229 15.1667 125.021 15.4583 124.938 15.875C125.104 16.2917 125.396 16.625 125.812 16.875C126.229 17.125 126.229 17.5 125.812 18C126.312 18.8333 126.479 19.375 126.312 19.625C126.229 19.7917 126.104 20 125.938 20.25C126.354 20.9167 126.479 21.3333 126.312 21.5C126.229 21.5833 126.146 21.7083 126.062 21.875C126.479 22.875 126.438 23.75 125.938 24.5C125.438 25.1667 124.979 25.75 124.562 26.25C124.562 26.5833 124.646 26.875 124.812 27.125C124.979 27.2917 125.104 27.5417 125.188 27.875C125.104 28.5417 125.229 29.1667 125.562 29.75C125.979 30.3333 125.979 30.9583 125.562 31.625C125.562 32.0417 125.604 32.5417 125.688 33.125C125.854 33.625 125.771 34.0417 125.438 34.375C125.604 35.5417 125.562 36.2083 125.312 36.375C125.312 37.2917 125.312 37.9167 125.312 38.25C125.312 38.5833 125.312 38.8333 125.312 39C125.146 40 125.021 40.6667 124.938 41C124.854 41.3333 124.812 41.6667 124.812 42C124.979 42.25 125.104 42.4583 125.188 42.625C125.354 42.7083 125.521 42.875 125.688 43.125C125.688 43.5417 125.646 43.9167 125.562 44.25C125.562 44.5833 125.646 44.9167 125.812 45.25C125.729 45.5 125.646 45.75 125.562 46C125.479 46.1667 125.479 46.4167 125.562 46.75C126.312 48.3333 126.479 49.5417 126.062 50.375C126.396 50.9583 126.479 51.625 126.312 52.375C126.229 53.0417 126.104 53.7083 125.938 54.375C125.854 55.2917 125.938 55.75 126.188 55.75C126.521 55.6667 126.729 55.8333 126.812 56.25C126.896 56.5833 126.771 56.8333 126.438 57C126.104 57.0833 125.812 57.2083 125.562 57.375C125.562 58.2083 125.438 59 125.188 59.75C125.104 60.4167 125.146 61 125.312 61.5C125.479 62 125.479 62.5833 125.312 63.25C125.062 64.0833 124.854 64.4167 124.688 64.25C124.521 64.0833 124.354 64.0833 124.188 64.25C124.438 65.3333 124.438 65.9583 124.188 66.125C123.938 66.2083 123.729 66.375 123.562 66.625C123.729 66.875 123.938 67.0833 124.188 67.25C124.521 67.4167 124.812 67.625 125.062 67.875C125.146 68.625 125.271 69.0833 125.438 69.25C125.688 69.3333 125.771 69.625 125.688 70.125C125.271 70.375 125.021 70.625 124.938 70.875C124.854 71.0417 124.896 71.2083 125.062 71.375C125.229 71.5417 125.438 71.6667 125.688 71.75C125.938 71.75 126.104 71.9167 126.188 72.25C125.854 73 125.688 73.5833 125.688 74C125.688 74.4167 125.604 74.7083 125.438 74.875C125.688 75.0417 125.854 75.375 125.938 75.875C126.021 76.2917 125.896 76.6667 125.562 77C125.729 77.3333 125.896 77.6667 126.062 78C126.229 78.3333 126.354 78.7083 126.438 79.125C126.938 79.9583 127.104 80.4583 126.938 80.625C126.771 80.7917 126.771 81.0833 126.938 81.5C126.854 82.3333 126.729 82.9167 126.562 83.25C126.396 83.5833 126.229 83.875 126.062 84.125C126.479 83.9583 126.979 83.9167 127.562 84C128.229 84 128.479 84.375 128.312 85.125C128.146 85.375 127.896 85.5833 127.562 85.75C127.312 85.8333 127.062 86 126.812 86.25C126.062 86.9167 125.604 87.3333 125.438 87.5C125.271 87.6667 125.104 87.9167 124.938 88.25C124.854 89.1667 124.688 89.625 124.438 89.625C124.188 89.625 124.021 89.7083 123.938 89.875C124.354 90.0417 124.729 90.25 125.062 90.5C125.396 90.6667 125.646 91.0833 125.812 91.75C125.646 92.1667 125.354 92.7917 124.938 93.625C124.604 94.4583 124.271 95 123.938 95.25C122.938 95.25 122.229 95.0417 121.812 94.625C120.562 94.5417 119.812 94.2083 119.562 93.625C119.396 93.0417 119.021 92.7917 118.438 92.875C118.438 93.0417 118.229 93.25 117.812 93.5C117.396 93.75 117.271 93.9583 117.438 94.125C117.688 94.0417 117.938 93.9167 118.188 93.75C118.521 93.5833 118.812 93.625 119.062 93.875C118.979 94.125 118.771 94.375 118.438 94.625C118.188 94.875 117.896 95.0417 117.562 95.125C117.229 95.2083 116.896 95.1667 116.562 95C116.229 94.9167 116.021 94.6667 115.938 94.25C115.354 94.4167 114.979 94.5417 114.812 94.625C114.646 94.7917 114.396 94.875 114.062 94.875C113.562 94.7083 113.312 94.4583 113.312 94.125C113.396 93.7917 113.438 93.4167 113.438 93C112.771 93.1667 112.312 93.125 112.062 92.875C111.896 92.125 111.646 91.75 111.312 91.75C110.979 91.6667 110.729 91.4583 110.562 91.125C110.146 90.125 109.854 89.2917 109.688 88.625C109.604 87.9583 109.646 87.2917 109.812 86.625C109.646 85.625 109.771 85.125 110.188 85.125C110.604 85.0417 110.812 84.75 110.812 84.25C110.396 83.75 109.729 83.5417 108.812 83.625C107.979 83.7083 107.354 83.5417 106.938 83.125C106.938 82.625 107.021 82.2917 107.188 82.125C107.438 81.9583 107.646 81.7083 107.812 81.375C107.229 80.9583 106.896 80.5417 106.812 80.125C105.979 80.2083 105.479 80.25 105.312 80.25C105.062 79.9167 104.979 79.5417 105.062 79.125C105.146 78.625 105.271 78.25 105.438 78C105.438 77.5833 105.396 77.2917 105.312 77.125C105.229 76.875 105.146 76.625 105.062 76.375C104.812 75.7917 104.521 75.5 104.188 75.5C103.854 75.5 103.604 75.2917 103.438 74.875C103.188 74.2083 102.896 73.875 102.562 73.875C102.229 73.875 102.021 73.6667 101.938 73.25C102.104 72.9167 102.104 72.6667 101.938 72.5C101.854 72.25 101.771 72 101.688 71.75C101.438 70.6667 101.146 69.9583 100.812 69.625C100.562 69.2083 100.271 68.7917 99.9375 68.375C99.2708 67.4583 99.0208 66.8333 99.1875 66.5C98.7708 65.5833 98.4792 65 98.3125 64.75C98.1458 64.5 97.9792 64.1667 97.8125 63.75C97.5625 63.6667 97.2708 63.5 96.9375 63.25C96.6875 62.9167 96.6458 62.5417 96.8125 62.125C96.3958 61.4583 96.1458 61.0417 96.0625 60.875C96.0625 60.625 96.0625 60.375 96.0625 60.125C95.2292 59.375 94.7292 58.9167 94.5625 58.75C94.4792 58.5 94.3958 58.25 94.3125 58C94.3125 57.3333 94.2292 56.8333 94.0625 56.5C93.8958 56.0833 93.7708 55.625 93.6875 55.125C93.3542 54.9583 93.0208 54.7917 92.6875 54.625C92.4375 54.375 92.3125 54.0417 92.3125 53.625C92.3125 53.2917 92.4375 53.0833 92.6875 53C92.9375 52.9167 93.1458 52.7083 93.3125 52.375C92.8958 52.125 92.4375 52 91.9375 52C91.4375 51.9167 91.0625 51.6667 90.8125 51.25C90.6458 50.9167 90.6042 50.6667 90.6875 50.5C90.7708 50.25 90.8125 49.9583 90.8125 49.625C90.7292 49.4583 90.6042 49.2917 90.4375 49.125C90.2708 48.9583 90.1875 48.6667 90.1875 48.25C89.9375 47.4167 89.5208 46.9583 88.9375 46.875C88.3542 46.7083 88.1042 46.2083 88.1875 45.375C88.4375 44.0417 88.4375 43.1667 88.1875 42.75C88.0208 42.3333 87.8542 41.875 87.6875 41.375C86.7708 41.2917 86.3542 41.4167 86.4375 41.75C86.6042 42.0833 86.6042 42.4583 86.4375 42.875C86.1042 43.0417 85.7708 43.25 85.4375 43.5C85.1042 43.75 84.8958 44.0833 84.8125 44.5C85.0625 44.9167 85.4375 45.1667 85.9375 45.25C86.5208 45.3333 86.8542 45.7083 86.9375 46.375C86.5208 47.0417 86.3958 47.4167 86.5625 47.5C86.7292 47.5 86.8542 47.5833 86.9375 47.75C87.0208 48.3333 86.9792 48.8333 86.8125 49.25C86.6458 49.6667 86.5208 50.0833 86.4375 50.5C86.5208 50.8333 86.6875 51.0417 86.9375 51.125C87.2708 51.125 87.4792 51.25 87.5625 51.5C87.3958 52.5 87.1875 53.25 86.9375 53.75C86.7708 54.1667 86.6875 54.5833 86.6875 55C87.0208 55.8333 87.0208 56.2917 86.6875 56.375C86.4375 56.375 86.2292 56.5 86.0625 56.75C86.2292 57.1667 86.4792 57.4583 86.8125 57.625C87.2292 57.7083 87.5208 57.9583 87.6875 58.375C87.1875 59.7083 86.8958 60.4583 86.8125 60.625C87.5625 61.5417 87.8125 62.0833 87.5625 62.25C87.3958 62.4167 87.4375 62.7083 87.6875 63.125C87.5208 64.375 87.6458 65.1667 88.0625 65.5C88.4792 65.8333 88.6458 66.2917 88.5625 66.875C88.4792 67.2917 88.3125 67.5833 88.0625 67.75C87.8125 67.8333 87.6458 68.0833 87.5625 68.5C87.6458 69.5 87.5208 70.0417 87.1875 70.125C86.9375 70.125 86.7292 70.2083 86.5625 70.375C86.6458 70.7917 86.6875 71.2917 86.6875 71.875C86.7708 72.375 86.7292 72.8333 86.5625 73.25C86.6458 73.5 86.7708 73.7083 86.9375 73.875C87.1042 73.9583 87.2708 74.125 87.4375 74.375C87.4375 74.7917 87.3542 75.1667 87.1875 75.5C87.0208 75.8333 86.9792 76.2083 87.0625 76.625C87.2292 76.7917 87.3125 77 87.3125 77.25C87.3958 77.5 87.4792 77.7917 87.5625 78.125C87.7292 79.125 87.7292 79.7083 87.5625 79.875C87.3958 80.0417 87.1458 80.2083 86.8125 80.375C86.8125 80.625 86.8542 80.9167 86.9375 81.25C87.1042 81.5833 87.2708 81.9167 87.4375 82.25C87.5208 82.6667 87.4792 82.9583 87.3125 83.125C87.1458 83.2917 86.9792 83.5 86.8125 83.75C86.9792 84.0833 87.0625 84.4583 87.0625 84.875C87.1458 85.2917 87.3542 85.7083 87.6875 86.125C87.6875 86.7083 87.5208 87.1667 87.1875 87.5C87.1875 87.75 87.1875 88.0833 87.1875 88.5C87.1875 88.8333 87.2708 89.1667 87.4375 89.5C87.7708 90.5 88.0625 91.1667 88.3125 91.5C88.5625 91.75 88.7708 92.0417 88.9375 92.375C88.7708 92.7083 88.6042 93 88.4375 93.25C88.2708 93.5 88.1875 93.8333 88.1875 94.25C87.7708 95.1667 87.1458 95.875 86.3125 96.375C86.1458 97.375 85.8958 97.9167 85.5625 98C85.3125 98.1667 85.1042 98.375 84.9375 98.625C84.6875 99.5417 84.3958 99.9167 84.0625 99.75C83.8125 99.5833 83.5208 99.625 83.1875 99.875C82.8542 100.292 82.5208 100.667 82.1875 101C81.8542 101.417 81.5625 101.917 81.3125 102.5C81.4792 103.083 81.3958 103.625 81.0625 104.125C80.6458 104.125 80.2708 104.125 79.9375 104.125C79.6042 104.208 79.2708 104.375 78.9375 104.625C79.1042 105.375 79.0625 105.75 78.8125 105.75C78.6458 105.833 78.4792 105.917 78.3125 106C77.8125 106.5 77.4792 106.75 77.3125 106.75C77.1458 106.75 77.0625 106.833 77.0625 107C77.0625 107.417 77.1458 107.708 77.3125 107.875C77.5625 108.125 77.7292 108.417 77.8125 108.75C77.8125 109.333 77.4792 109.625 76.8125 109.625C76.1458 109.625 75.6042 109.542 75.1875 109.375C74.9375 109.542 74.8542 109.792 74.9375 110.125C75.1042 110.458 75.1042 110.75 74.9375 111C74.7708 111.083 74.5208 111.125 74.1875 111.125C73.9375 111.125 73.7292 111.208 73.5625 111.375C73.4792 112.125 73.3542 112.792 73.1875 113.375C73.1042 114.042 72.7292 114.458 72.0625 114.625C71.8958 114.958 71.7292 115.208 71.5625 115.375C71.4792 115.625 71.3542 115.958 71.1875 116.375C70.6875 116.792 70.2708 117.292 69.9375 117.875C69.6875 118.458 69.3125 118.917 68.8125 119.25C68.6458 119.5 68.5208 119.792 68.4375 120.125C68.4375 120.458 68.2292 120.667 67.8125 120.75C67.3958 120.25 67.2292 119.917 67.3125 119.75C67.4792 119.667 67.5208 119.5 67.4375 119.25C68.0208 118.833 68.3542 118.208 68.4375 117.375C68.6042 116.625 68.7708 115.917 68.9375 115.25C68.8542 113.75 69.0625 112.542 69.5625 111.625C69.5625 110.208 69.3958 109.375 69.0625 109.125C68.7292 108.958 68.5208 108.667 68.4375 108.25C68.8542 107.333 69.1875 106.75 69.4375 106.5C69.6875 106.333 69.8958 106.167 70.0625 106C69.8958 105.583 69.8958 105.167 70.0625 104.75C70.2292 104.333 70.3958 103.958 70.5625 103.625C70.5625 102.958 70.4375 102.333 70.1875 101.75C70.0208 101.25 70.0625 100.75 70.3125 100.25C70.2292 99.3333 70.3125 98.7917 70.5625 98.625C70.8125 98.5417 71.0208 98.375 71.1875 98.125C70.3542 97.875 69.9375 97.2917 69.9375 96.375C70.0208 96.2083 70.1458 96 70.3125 95.75C70.4792 95.5 70.5625 95.25 70.5625 95C70.3958 94.1667 70.3542 93.7083 70.4375 93.625C70.6042 93.5417 70.7708 93.4167 70.9375 93.25C70.6042 92.75 70.4375 92.2917 70.4375 91.875C70.5208 91.4583 70.7708 91.0417 71.1875 90.625C71.1042 89.9583 71.1458 89.25 71.3125 88.5C71.4792 87.6667 71.6875 86.9583 71.9375 86.375C71.2708 85.2917 71.0625 84.6667 71.3125 84.5C71.5625 84.25 71.7708 83.9583 71.9375 83.625C71.7708 82.875 71.6875 82.375 71.6875 82.125C71.6875 81.875 71.6458 81.625 71.5625 81.375C71.7292 81.0417 71.8958 80.75 72.0625 80.5C72.3125 80.1667 72.5208 79.875 72.6875 79.625C72.6875 78.625 72.7292 78.125 72.8125 78.125C72.8958 78.0417 72.9792 77.9167 73.0625 77.75C72.7292 77.1667 72.7292 76.6667 73.0625 76.25C72.8958 76 72.7708 75.7083 72.6875 75.375C72.6875 75.0417 72.6042 74.75 72.4375 74.5C72.6875 73.5 72.5625 72.9583 72.0625 72.875C71.6458 72.7083 71.5208 72.2917 71.6875 71.625C71.9375 71.4583 72.1875 71.375 72.4375 71.375C72.6875 71.2917 72.9375 71.1667 73.1875 71C73.2708 70.5833 73.1875 70.25 72.9375 70C72.7708 69.75 72.6458 69.4167 72.5625 69C72.6458 67.75 72.9375 66.7917 73.4375 66.125C73.2708 65.9583 72.9375 65.9167 72.4375 66C72.0208 66 71.7708 65.8333 71.6875 65.5C71.6875 65 71.9792 64.8333 72.5625 65C73.1458 65.0833 73.5625 65.0417 73.8125 64.875C73.6458 64.4583 73.3958 64.1667 73.0625 64C72.8125 63.8333 72.6042 63.5833 72.4375 63.25C72.2708 62.8333 72.2708 62.375 72.4375 61.875C72.2708 61.625 72.1042 61.4167 71.9375 61.25C71.8542 61.0833 71.7708 60.875 71.6875 60.625C71.7708 60.2083 71.8958 59.8333 72.0625 59.5C72.2292 59.1667 72.3958 58.8333 72.5625 58.5C72.3958 58 72.3542 57.7083 72.4375 57.625C72.5208 57.4583 72.4792 57.2917 72.3125 57.125C72.4792 56.875 72.6042 56.5833 72.6875 56.25C72.8542 55.9167 72.8958 55.5833 72.8125 55.25C72.3125 54.0833 72.1042 53.4583 72.1875 53.375C72.3542 53.2083 72.4375 52.9583 72.4375 52.625C72.3542 52.375 72.2292 52.125 72.0625 51.875C71.8958 51.625 71.8958 51.3333 72.0625 51C71.8958 50.1667 71.8542 49.6667 71.9375 49.5C72.1042 49.25 72.2708 49 72.4375 48.75V46.75C72.9375 45.6667 72.9792 45 72.5625 44.75C72.1458 44.5 71.9792 44 72.0625 43.25C71.9792 43.0833 71.8125 42.9167 71.5625 42.75C71.3125 42.5833 71.3125 42.2917 71.5625 41.875C71.3125 41.7917 71.0625 41.75 70.8125 41.75C70.5625 41.75 70.3542 41.6667 70.1875 41.5C70.1042 40.9167 70.1458 40.5 70.3125 40.25C70.4792 40 70.6458 39.75 70.8125 39.5C70.9792 39.25 71.1458 39 71.3125 38.75C71.5625 38.5 71.7708 38.2083 71.9375 37.875C72.1042 37.375 72.1875 36.875 72.1875 36.375C72.1875 35.875 72.1875 35.25 72.1875 34.5C72.0208 34.0833 71.8125 33.625 71.5625 33.125C71.3958 32.5417 71.4375 32 71.6875 31.5C71.5208 30.75 71.4792 30.3333 71.5625 30.25C71.7292 30.1667 71.8542 30.0417 71.9375 29.875C71.7708 29.0417 71.7292 28.5417 71.8125 28.375C71.9792 28.2083 72.1042 28.0417 72.1875 27.875C72.1042 27.2917 72.1042 26.8333 72.1875 26.5C72.3542 26.1667 72.4375 25.7917 72.4375 25.375C72.3542 25.0417 72.2292 24.7917 72.0625 24.625C71.8958 24.375 71.7708 24.0833 71.6875 23.75C71.8542 23 71.7292 22.5833 71.3125 22.5C70.9792 22.4167 70.7708 22.1667 70.6875 21.75C70.7708 21.3333 71.0208 21 71.4375 20.75C71.8542 20.4167 72.0625 20.0417 72.0625 19.625C71.8125 18.4583 71.6875 17.875 71.6875 17.875C71.4375 17.4583 71.3958 16.9583 71.5625 16.375C71.7292 15.7917 71.7708 15.2917 71.6875 14.875C70.6875 13.875 70.1458 13.0833 70.0625 12.5C69.6458 12.3333 69.1042 12.2083 68.4375 12.125C67.8542 12.0417 67.6042 11.625 67.6875 10.875C67.4375 9.875 67.2292 9.20833 67.0625 8.875C66.9792 8.54167 67.0208 8.20833 67.1875 7.875C66.8542 7.29167 66.2708 7 65.4375 7C64.6042 7 63.8958 6.83333 63.3125 6.5C62.3958 6.08333 61.8125 5.66667 61.5625 5.25C61.6458 4.5 61.9375 3.95833 62.4375 3.625C62.8542 3.54167 63.1458 3.54167 63.3125 3.625C63.4792 3.70833 63.6458 3.83333 63.8125 4C64.3125 3.91667 64.7708 4 65.1875 4.25C65.7708 4.16667 66.2708 4.125 66.6875 4.125C67.1042 4.04167 67.6458 4 68.3125 4C68.7292 3.91667 69.1458 3.83333 69.5625 3.75C69.9792 3.58333 70.4792 3.5 71.0625 3.5C71.5625 4.16667 71.8958 4.45833 72.0625 4.375C72.2292 4.20833 72.4792 4.08333 72.8125 4C73.4792 4.16667 74.0625 4.16667 74.5625 4C75.1458 3.75 75.7292 3.58333 76.3125 3.5C77.2292 4 77.8542 4.16667 78.1875 4C78.5208 3.75 78.9792 3.66667 79.5625 3.75C80.4792 3.91667 81.1458 3.95833 81.5625 3.875C81.9792 3.70833 82.3542 3.54167 82.6875 3.375C83.1875 3.45833 83.7292 3.41667 84.3125 3.25C84.8958 3 85.2708 3.16667 85.4375 3.75C85.6042 4.75 85.6458 5.29167 85.5625 5.375C85.5625 5.375 85.5625 5.41667 85.5625 5.5C86.0625 6.5 86.2292 7.08333 86.0625 7.25C85.9792 7.33333 85.8958 7.45833 85.8125 7.625C86.4792 7.95833 86.9792 8.125 87.3125 8.125C87.7292 8.04167 88.0208 8.08333 88.1875 8.25C88.4375 8.83333 88.4792 9.20833 88.3125 9.375C88.2292 9.45833 88.1458 9.58333 88.0625 9.75C88.6458 10.4167 88.8542 10.7917 88.6875 10.875C88.5208 10.875 88.4792 11 88.5625 11.25C89.2292 11.25 89.6042 11.3333 89.6875 11.5C89.8542 11.5833 89.8958 11.7083 89.8125 11.875C89.6458 12.2083 89.3958 12.4583 89.0625 12.625C88.7292 12.7083 88.4792 12.9167 88.3125 13.25C88.9792 13.1667 89.3542 13.375 89.4375 13.875C89.6042 14.2917 89.8125 14.7083 90.0625 15.125C90.4792 15.875 90.8125 16.2917 91.0625 16.375C91.3958 16.4583 91.6042 16.7083 91.6875 17.125C91.7708 17.625 91.6875 18.0417 91.4375 18.375C91.2708 18.625 91.1458 18.9583 91.0625 19.375C91.8958 19.9583 92.4792 20.6667 92.8125 21.5C92.9792 21.6667 93.2292 21.875 93.5625 22.125C93.8958 22.375 93.9792 22.7083 93.8125 23.125C94.7292 23.2917 95.3125 23.625 95.5625 24.125C95.5625 24.5417 95.5208 24.9167 95.4375 25.25C95.3542 25.5833 95.3542 25.9167 95.4375 26.25C96.0208 26.4167 96.4792 26.6667 96.8125 27C97.2292 27.25 97.3542 27.75 97.1875 28.5C97.7708 29.25 97.9792 29.6667 97.8125 29.75C98.3125 30.5833 98.5208 31.125 98.4375 31.375C98.3542 31.5417 98.3958 31.75 98.5625 32C99.1458 33.3333 99.5208 34.4583 99.6875 35.375C100.438 35.7917 100.854 36.125 100.938 36.375C101.021 36.625 101.146 36.8333 101.312 37C101.729 38 101.896 38.5833 101.812 38.75C101.729 38.8333 101.646 38.9583 101.562 39.125C101.646 39.375 101.729 39.5833 101.812 39.75C101.979 39.9167 102.104 40.125 102.188 40.375C102.188 40.7083 102.104 41 101.938 41.25C101.771 41.4167 101.688 41.625 101.688 41.875C102.521 42.5417 102.812 42.9167 102.562 43C102.312 43 102.146 43.0833 102.062 43.25C102.812 43.5 103.271 43.6667 103.438 43.75C103.604 43.8333 103.771 43.875 103.938 43.875C104.938 44.625 105.521 45.1667 105.688 45.5C105.938 45.75 106.021 46.1667 105.938 46.75C106.271 46.8333 106.562 47.0417 106.812 47.375C107.146 47.625 107.146 47.9583 106.812 48.375C107.396 49.0417 107.688 49.4583 107.688 49.625C107.771 49.7083 107.854 49.8333 107.938 50C107.771 50.5 107.771 50.9583 107.938 51.375C108.104 51.7083 108.271 52.0833 108.438 52.5C108.604 53.1667 108.771 53.6667 108.938 54C109.104 54.3333 109.354 54.5833 109.688 54.75C109.604 54.5 109.646 54.25 109.812 54C109.979 53.6667 109.979 53.375 109.812 53.125C110.146 52.875 110.438 52.625 110.688 52.375C110.938 52.125 111.188 51.875 111.438 51.625C111.354 51.2917 111.229 51.0833 111.062 51C110.979 50.8333 110.854 50.625 110.688 50.375C110.438 49.625 110.354 49.0833 110.438 48.75C110.521 48.3333 110.521 47.9167 110.438 47.5C110.271 46.6667 110.062 46.125 109.812 45.875C109.646 44.875 109.604 44.375 109.688 44.375C109.854 44.375 110.021 44.2917 110.188 44.125C110.188 42.875 110.146 42.1667 110.062 42C110.146 41.5 110.062 41 109.812 40.5C109.979 39.3333 109.896 38.4583 109.562 37.875C109.312 37.2917 109.146 36.625 109.062 35.875C109.646 35.375 110.021 35.0417 110.188 34.875C110.354 34.7083 110.438 34.5833 110.438 34.5C109.771 34 109.438 33.7083 109.438 33.625C109.521 33.5417 109.479 33.4583 109.312 33.375C109.312 32.875 109.479 32.2917 109.812 31.625C109.646 31.4583 109.521 31.1667 109.438 30.75C109.438 30.25 109.521 29.9167 109.688 29.75C109.521 29.4167 109.354 29.125 109.188 28.875C109.104 28.5417 109.146 28.1667 109.312 27.75C109.062 26.25 109.021 25.125 109.188 24.375C109.354 23.625 109.521 22.875 109.688 22.125C109.354 21.875 109.188 21.5417 109.188 21.125C109.271 20.625 109.396 20.2083 109.562 19.875C109.146 19.0417 108.979 18.5417 109.062 18.375C109.229 18.2083 109.354 18.0417 109.438 17.875C109.354 17.4583 109.188 17.125 108.938 16.875C108.688 16.625 108.521 16.25 108.438 15.75C108.521 15.5 108.688 15.3333 108.938 15.25C109.271 15.1667 109.479 15 109.562 14.75C109.062 13.6667 108.896 13.0417 109.062 12.875C109.229 12.625 109.396 12.3333 109.562 12C109.562 11.75 109.479 11.5 109.312 11.25C109.146 10.9167 109.104 10.625 109.188 10.375C109.604 9.375 109.729 8.79167 109.562 8.625C109.479 8.45833 109.438 8.16667 109.438 7.75C109.188 6.83333 109.146 6.33333 109.312 6.25C109.562 6.08333 109.771 5.91667 109.938 5.75C108.688 5.41667 107.938 5.125 107.688 4.875C107.688 4.20833 107.854 3.875 108.188 3.875C108.521 3.79167 108.812 3.66667 109.062 3.5C109.479 3.5 109.896 3.41667 110.312 3.25C110.729 3.08333 111.146 3 111.562 3C112.146 3 112.812 3 113.562 3C114.312 2.91667 115.062 2.83333 115.812 2.75C116.562 2.58333 117.146 2.5 117.562 2.5C117.979 2.41667 118.271 2.54167 118.438 2.875C118.854 3.20833 119.312 3.375 119.812 3.375C120.312 3.375 120.729 3.5 121.062 3.75C121.479 3.83333 121.812 3.79167 122.062 3.625C122.312 3.375 122.562 3.125 122.812 2.875C123.562 3.04167 124.188 3.08333 124.688 3C125.271 2.83333 125.854 2.66667 126.438 2.5C126.854 2.58333 127.188 2.625 127.438 2.625C127.771 2.625 128.146 2.70833 128.562 2.875C129.479 2.70833 130.229 2.45833 130.812 2.125C131.479 1.70833 132.396 1.5 133.562 1.5Z" fill="black"/>
</svg>
